<svg xmlns="http://www.svg.org/2000/svg" viewBox="0 0 512 512" width="512" height="512">
  <rect width="512" height="512" fill="#4f46e5" rx="100"/>
  <path
    d="M256 96 C264.837 96 272 103.163 272 112 L272 128 L400 128 C408.837 128 416 135.163 416 144 C416 152.837 408.837 160 400 160 L272 160 L272 400 L320 400 C328.837 400 336 407.163 336 416 C336 424.837 328.837 432 320 432 L192 432 C183.163 432 176 424.837 176 416 C176 407.163 183.163 400 192 400 L240 400 L240 160 L112 160 C103.163 160 96 152.837 96 144 C96 135.163 103.163 128 112 128 L240 128 L240 112 C240 103.163 247.163 96 256 96 Z"
    fill="#facc15"
  />
  <path
    d="M112 128 L160 272 C160 298.51 138.51 320 112 320 C85.4903 320 64 298.51 64 272 L112 128 Z"
    fill="#facc15"
  />
  <path
    d="M400 128 L448 272 C448 298.51 426.51 320 400 320 C373.49 320 352 298.51 352 272 L400 128 Z"
    fill="#facc15"
  />
</svg>
